<?xml version="1.0" encoding="UTF-8" standalone="no"?>
<!-- Created with Inkscape (http://www.inkscape.org/) -->

<svg
   xmlns:dc="http://purl.org/dc/elements/1.1/"
   xmlns:cc="http://creativecommons.org/ns#"
   xmlns:rdf="http://www.w3.org/1999/02/22-rdf-syntax-ns#"
   xmlns:svg="http://www.w3.org/2000/svg"
   xmlns="http://www.w3.org/2000/svg"
   xmlns:sodipodi="http://sodipodi.sourceforge.net/DTD/sodipodi-0.dtd"
   xmlns:inkscape="http://www.inkscape.org/namespaces/inkscape"
   width="101.01018"
   height="97.009605"
   viewBox="0 0 26.725609 25.667126"
   version="1.1"
   id="svg8"
   sodipodi:docname="lock.svg"
   inkscape:version="0.92.3 (2405546, 2018-03-11)">
  <defs
     id="defs2" />
  <sodipodi:namedview
     id="base"
     pagecolor="#ffffff"
     bordercolor="#666666"
     borderopacity="1.0"
     inkscape:pageopacity="0.0"
     inkscape:pageshadow="2"
     inkscape:zoom="1.4"
     inkscape:cx="128.61963"
     inkscape:cy="74.956733"
     inkscape:document-units="px"
     inkscape:current-layer="layer1"
     showgrid="false"
     units="px"
     inkscape:window-width="1600"
     inkscape:window-height="845"
     inkscape:window-x="1280"
     inkscape:window-y="24"
     inkscape:window-maximized="1" />
  <metadata
     id="metadata5">
    <rdf:RDF>
      <cc:Work
         rdf:about="">
        <dc:format>image/svg+xml</dc:format>
        <dc:type
           rdf:resource="http://purl.org/dc/dcmitype/StillImage" />
        <dc:title></dc:title>
      </cc:Work>
    </rdf:RDF>
  </metadata>
  <g
     inkscape:label="Layer 1"
     inkscape:groupmode="layer"
     id="layer1"
     transform="translate(108.67216,-32.501125)">
    <g
       id="g1078"
       transform="matrix(1.2128848,0,0,1.2128848,-201.24947,17.963114)"
       style="stroke-width:1.0907191;stroke-miterlimit:4;stroke-dasharray:none">
      <rect
         ry="1.895674"
         y="18.36871"
         x="80.370224"
         height="10.963648"
         width="13.950688"
         id="rect1019"
         style="opacity:1;fill:none;fill-opacity:1;stroke:#000000;stroke-width:1.0907191;stroke-miterlimit:4;stroke-dasharray:none;stroke-dashoffset:0;stroke-opacity:1" />
      <path
         inkscape:connector-curvature="0"
         id="ellipse1027"
         d="m 82.622198,18.237698 a 4.723989,5.7997489 0 0 1 4.723374,-5.70603 4.723989,5.7997489 0 0 1 4.723371,5.706034"
         style="opacity:1;fill:none;fill-opacity:1;stroke:#000000;stroke-width:1.0907191;stroke-miterlimit:4;stroke-dasharray:none;stroke-dashoffset:0;stroke-opacity:1" />
      <circle
         r="1.2567708"
         cy="23.850533"
         cx="87.345573"
         id="path1034"
         style="opacity:1;fill:#000000;fill-opacity:1;stroke:#000000;stroke-width:1.0907191;stroke-miterlimit:4;stroke-dasharray:none;stroke-dashoffset:0;stroke-opacity:1" />
      <path
         transform="scale(0.26458333)"
         id="path1047"
         d="m 360.67723,105.94039 h 3.1855 c 3.23621,0 5.84153,2.60532 5.84153,5.84153 v 5.60047 c 0,3.23621 -2.60532,5.84153 -5.84153,5.84153 h -67.47547 c -3.23621,0 -5.84153,-2.60532 -5.84153,-5.84153 v -5.60047 c 0,-3.23621 2.60532,-5.84153 5.84153,-5.84153 v 0 h 3.18549"
         style="opacity:1;fill:none;fill-opacity:1;stroke:#000000;stroke-width:4.12240314;stroke-miterlimit:4;stroke-dasharray:none;stroke-dashoffset:0;stroke-opacity:1"
         inkscape:connector-curvature="0" />
      <path
         inkscape:connector-curvature="0"
         d="m 95.175862,30.842972 a 0.58060801,0.58060801 0 0 1 -0.580608,0.580608 0.58060801,0.58060801 0 0 1 -0.580608,-0.580608 0.58060801,0.58060801 0 0 1 0.580608,-0.580608 0.58060801,0.58060801 0 0 1 0.580608,0.580608 z m -2.54908,0 a 0.58060801,0.58060801 0 0 1 -0.580608,0.580608 0.58060801,0.58060801 0 0 1 -0.580608,-0.580608 0.58060801,0.58060801 0 0 1 0.580608,-0.580608 0.58060801,0.58060801 0 0 1 0.580608,0.580608 z m -2.408768,0 a 0.58060801,0.58060801 0 0 1 -0.580608,0.580608 0.58060801,0.58060801 0 0 1 -0.580608,-0.580608 0.58060801,0.58060801 0 0 1 0.580608,-0.580608 0.58060801,0.58060801 0 0 1 0.580608,0.580608 z m -2.174904,0 a 0.58060801,0.58060801 0 0 1 -0.580608,0.580608 0.58060801,0.58060801 0 0 1 -0.580608,-0.580608 0.58060801,0.58060801 0 0 1 0.580608,-0.580608 0.58060801,0.58060801 0 0 1 0.580608,0.580608 z m -2.408767,0 a 0.58060801,0.58060801 0 0 1 -0.580608,0.580608 0.58060801,0.58060801 0 0 1 -0.580608,-0.580608 0.58060801,0.58060801 0 0 1 0.580608,-0.580608 0.58060801,0.58060801 0 0 1 0.580608,0.580608 z m -2.54908,0 a 0.58060801,0.58060801 0 0 1 -0.580608,0.580608 0.58060801,0.58060801 0 0 1 -0.580608,-0.580608 0.58060801,0.58060801 0 0 1 0.580608,-0.580608 0.58060801,0.58060801 0 0 1 0.580608,0.580608 z m -2.408768,0 a 0.58060801,0.58060801 0 0 1 -0.580608,0.580608 0.58060801,0.58060801 0 0 1 -0.580608,-0.580608 0.58060801,0.58060801 0 0 1 0.580608,-0.580608 0.58060801,0.58060801 0 0 1 0.580608,0.580608 z"
         style="opacity:1;fill:#000000;fill-opacity:1;stroke:#000000;stroke-width:0;stroke-miterlimit:4;stroke-dasharray:none;stroke-dashoffset:0;stroke-opacity:1"
         id="circle1061" />
    </g>
  </g>
</svg>
