<?xml version="1.0" encoding="UTF-8" standalone="no"?>
<!-- Created with Inkscape (http://www.inkscape.org/) -->

<svg
   xmlns:dc="http://purl.org/dc/elements/1.1/"
   xmlns:cc="http://creativecommons.org/ns#"
   xmlns:rdf="http://www.w3.org/1999/02/22-rdf-syntax-ns#"
   xmlns:svg="http://www.w3.org/2000/svg"
   xmlns="http://www.w3.org/2000/svg"
   xmlns:sodipodi="http://sodipodi.sourceforge.net/DTD/sodipodi-0.dtd"
   xmlns:inkscape="http://www.inkscape.org/namespaces/inkscape"
   width="113.36584"
   height="78.302116"
   viewBox="0 0 29.99471 20.717436"
   version="1.1"
   id="svg8"
   sodipodi:docname="spysvg.svg"
   inkscape:version="0.92.3 (2405546, 2018-03-11)">
  <defs
     id="defs2" />
  <sodipodi:namedview
     id="base"
     pagecolor="#ffffff"
     bordercolor="#666666"
     borderopacity="1.0"
     inkscape:pageopacity="0.0"
     inkscape:pageshadow="2"
     inkscape:zoom="1.4"
     inkscape:cx="-162.84833"
     inkscape:cy="89.492434"
     inkscape:document-units="px"
     inkscape:current-layer="layer1"
     showgrid="false"
     units="px"
     inkscape:window-width="1600"
     inkscape:window-height="845"
     inkscape:window-x="1280"
     inkscape:window-y="24"
     inkscape:window-maximized="1" />
  <metadata
     id="metadata5">
    <rdf:RDF>
      <cc:Work
         rdf:about="">
        <dc:format>image/svg+xml</dc:format>
        <dc:type
           rdf:resource="http://purl.org/dc/dcmitype/StillImage" />
        <dc:title></dc:title>
      </cc:Work>
    </rdf:RDF>
  </metadata>
  <g
     inkscape:label="Layer 1"
     inkscape:groupmode="layer"
     id="layer1"
     transform="translate(109.87637,-33.770408)">
    <g
       id="g1095"
       transform="matrix(0.23638206,0,0,0.22601869,-28.024305,34.294887)"
       inkscape:export-xdpi="96"
       inkscape:export-ydpi="96">
      <path
         sodipodi:nodetypes="csssssssccc"
         id="path916"
         d="m -272.05808,10.534131 h 28.92513 c 3.20309,0 5.78176,2.578658 5.78176,5.781739 v 49.851472 c 0,3.203084 -2.57867,5.781737 -5.78176,5.781737 h -79.38382 c -3.20308,0 -5.78175,-2.578653 -5.78175,-5.781737 V 16.31587 c 0,-3.203081 2.57867,-5.781739 5.78175,-5.781739 v 0 h 23.16716"
         style="opacity:1;fill:none;fill-opacity:1;stroke:#000000;stroke-width:3.72354364;stroke-miterlimit:4;stroke-dasharray:none;stroke-dashoffset:0;stroke-opacity:1"
         inkscape:connector-curvature="0" />
      <rect
         ry="7.1674657"
         y="72.528938"
         x="-344.04962"
         height="14.592443"
         width="122.44963"
         id="rect894"
         style="opacity:1;fill:none;fill-opacity:1;stroke:#000000;stroke-width:4.44117785;stroke-miterlimit:4;stroke-dasharray:none;stroke-dashoffset:0;stroke-opacity:1" />
      <rect
         rx="2.8550429"
         style="opacity:1;fill:none;fill-opacity:1;stroke:#000000;stroke-width:3.55294251;stroke-miterlimit:4;stroke-dasharray:none;stroke-dashoffset:0;stroke-opacity:1"
         id="rect896"
         width="33.018276"
         height="7.0232863"
         x="-299.4133"
         y="72.393646"
         ry="1.5561016" />
      <path
         sodipodi:nodetypes="csccc"
         id="path923"
         d="M -337.46212,42.638515 V 6.7089392 c 0,-3.7732246 3.03765,-6.8108728 6.81087,-6.8108728 v 0 h 43.87633"
         style="opacity:1;fill:none;fill-opacity:1;stroke:#000000;stroke-width:4.42989445;stroke-miterlimit:4;stroke-dasharray:none;stroke-dashoffset:0;stroke-opacity:1"
         inkscape:connector-curvature="0" />
      <path
         id="path937"
         d="m -228.18753,45.778508 v 19.655366 c 0,3.773225 -3.03764,6.810874 -6.81087,6.810874 h -95.65282 c -3.77322,0 -6.81086,-3.037649 -6.81086,-6.810874 l -4e-5,-14.496041"
         style="opacity:1;fill:none;fill-opacity:1;stroke:#000000;stroke-width:4.42989445;stroke-miterlimit:4;stroke-dasharray:none;stroke-dashoffset:0;stroke-opacity:1"
         inkscape:connector-curvature="0" />
      <path
         sodipodi:nodetypes="cssc"
         id="path911"
         d="m -274.87879,-0.10193696 h 39.88039 c 3.77323,0 6.81087,3.03765156 6.81087,6.81087616 V 37.704723"
         style="opacity:1;fill:none;fill-opacity:1;stroke:#000000;stroke-width:4.42989445;stroke-miterlimit:4;stroke-dasharray:none;stroke-dashoffset:0;stroke-opacity:1"
         inkscape:connector-curvature="0" />
      <ellipse
         ry="2.1070645"
         rx="2.2450259"
         cy="51.014725"
         cx="-337.4483"
         id="path962"
         style="opacity:1;fill:#000000;fill-opacity:1;stroke:none;stroke-width:1.72247386;stroke-miterlimit:4;stroke-dasharray:none;stroke-dashoffset:0;stroke-opacity:1" />
      <ellipse
         style="opacity:1;fill:#000000;fill-opacity:1;stroke:none;stroke-width:1.72247386;stroke-miterlimit:4;stroke-dasharray:none;stroke-dashoffset:0;stroke-opacity:1"
         id="ellipse941"
         cx="-337.4483"
         cy="43.004745"
         rx="2.2450259"
         ry="2.1070645" />
      <ellipse
         ry="2.1070645"
         rx="2.2450259"
         cy="37.798534"
         cx="-228.21005"
         id="ellipse943"
         style="opacity:1;fill:#000000;fill-opacity:1;stroke:none;stroke-width:1.72247386;stroke-miterlimit:4;stroke-dasharray:none;stroke-dashoffset:0;stroke-opacity:1" />
      <ellipse
         style="opacity:1;fill:#000000;fill-opacity:1;stroke:none;stroke-width:1.72247386;stroke-miterlimit:4;stroke-dasharray:none;stroke-dashoffset:0;stroke-opacity:1"
         id="ellipse945"
         cx="-228.21005"
         cy="45.593418"
         rx="2.2450259"
         ry="2.1070645" />
      <ellipse
         ry="1.8547121"
         rx="2.2450259"
         cy="10.516413"
         cx="-298.76285"
         id="ellipse947"
         style="opacity:1;fill:#000000;fill-opacity:1;stroke:none;stroke-width:1.61603951;stroke-miterlimit:4;stroke-dasharray:none;stroke-dashoffset:0;stroke-opacity:1" />
      <ellipse
         style="opacity:1;fill:#000000;fill-opacity:1;stroke:none;stroke-width:1.61603951;stroke-miterlimit:4;stroke-dasharray:none;stroke-dashoffset:0;stroke-opacity:1"
         id="ellipse949"
         cx="-271.6947"
         cy="10.516413"
         rx="2.2450259"
         ry="1.8547121" />
      <ellipse
         ry="2.2192211"
         rx="2.2450259"
         cy="-0.10129026"
         cx="-286.59106"
         id="ellipse951"
         style="opacity:1;fill:#000000;fill-opacity:1;stroke:none;stroke-width:1.76772213;stroke-miterlimit:4;stroke-dasharray:none;stroke-dashoffset:0;stroke-opacity:1" />
      <ellipse
         style="opacity:1;fill:#000000;fill-opacity:1;stroke:none;stroke-width:1.76772213;stroke-miterlimit:4;stroke-dasharray:none;stroke-dashoffset:0;stroke-opacity:1"
         id="ellipse953"
         cx="-274.26685"
         cy="-0.10129026"
         rx="2.2450259"
         ry="2.2192211" />
      <g
         style="stroke-width:0.9830144;stroke-miterlimit:4;stroke-dasharray:none"
         id="g1032"
         transform="matrix(1.807167,0,0,1.807167,-359.99286,-8.2820376)">
        <ellipse
           style="opacity:1;fill:none;fill-opacity:1;stroke:#000000;stroke-width:0.9830144;stroke-miterlimit:4;stroke-dasharray:none;stroke-dashoffset:0;stroke-opacity:1"
           id="ellipse1014"
           cx="41.825977"
           cy="22.305796"
           rx="2.7367787"
           ry="1.2041826" />
        <g
           style="stroke-width:0.9830144;stroke-miterlimit:4;stroke-dasharray:none"
           transform="translate(120.96474,53.105655)"
           id="g1026">
          <ellipse
             style="opacity:1;fill:none;fill-opacity:1;stroke:#000000;stroke-width:0.9830144;stroke-miterlimit:4;stroke-dasharray:none;stroke-dashoffset:0;stroke-opacity:1"
             id="ellipse1016"
             cx="-79.138763"
             cy="-32.548"
             rx="7.0870538"
             ry="3.1183035" />
          <rect
             style="opacity:1;fill:none;fill-opacity:1;stroke:#000000;stroke-width:0.9830144;stroke-miterlimit:4;stroke-dasharray:none;stroke-dashoffset:0;stroke-opacity:1"
             id="rect1018"
             width="5.7168899"
             height="19.702009"
             x="-81.997208"
             y="-31.697554"
             ry="2.1350102" />
          <ellipse
             style="opacity:1;fill:none;fill-opacity:1;stroke:#000000;stroke-width:0.9830144;stroke-miterlimit:4;stroke-dasharray:none;stroke-dashoffset:0;stroke-opacity:1"
             id="ellipse1020"
             cx="-79.138763"
             cy="-26.075157"
             rx="3.7098994"
             ry="1.6323559" />
          <ellipse
             ry="1.6323559"
             rx="3.7098994"
             cy="-22.815113"
             cx="-79.138763"
             id="ellipse1022"
             style="opacity:1;fill:none;fill-opacity:1;stroke:#000000;stroke-width:0.9830144;stroke-miterlimit:4;stroke-dasharray:none;stroke-dashoffset:0;stroke-opacity:1" />
          <ellipse
             style="opacity:1;fill:none;fill-opacity:1;stroke:#000000;stroke-width:0.9830144;stroke-miterlimit:4;stroke-dasharray:none;stroke-dashoffset:0;stroke-opacity:1"
             id="ellipse1024"
             cx="-79.067894"
             cy="-14.759496"
             rx="3.6143973"
             ry="0.59058779" />
        </g>
        <path
           sodipodi:nodetypes="cccccccccccccccccccccc"
           inkscape:connector-curvature="0"
           id="path1028"
           d="m 35.530994,19.125409 c 0,0 1.243846,-1.770325 -1.194988,-3.708027 l 1.269528,-0.334089 -0.50113,-1.469982 1.336348,0.434313 0.133634,-0.668174 1.169304,-0.06682 0.133635,-0.935443 1.302939,0.968852 1.469983,-1.302939 0.467721,0.467722 0.634765,-0.7684 0.567948,0.835217 2.706104,-0.367495 0.634765,1.336347 1.837478,-0.367495 -0.03341,1.236121 0.734991,-0.300678 -0.367496,1.26953 0.801809,-0.50113 c 0,0 -1.702164,2.667659 -0.633086,4.004007 -0.680288,-0.146348 -7.055283,-3.298966 -12.470842,0.238563 z"
           style="fill:none;stroke:#000000;stroke-width:0.9830144;stroke-linecap:butt;stroke-linejoin:miter;stroke-miterlimit:4;stroke-dasharray:none;stroke-opacity:1" />
        <path
           sodipodi:nodetypes="ccccccccccccc"
           inkscape:connector-curvature="0"
           id="path1030"
           d="m 38.542307,12.691025 c 0,0 -1.677268,-1.866257 -0.803198,-2.645833 0,0 0.259857,0.685082 0.826821,0.566964 0,0 0.661458,-1.464658 -0.165365,-1.795387 0,0 0.726881,-0.911227 1.488282,1.157552 0,0 0.897693,-1.937128 0.188988,-2.740327 0,0 1.724516,-0.118118 1.984375,1.299293 0,0 -0.259859,-2.055246 0.755952,-2.574963 0,0 -0.09449,2.338728 0.4016,2.504092 0,0 0.87407,-0.755952 0.448847,-1.157552 0,0 1.015811,0.236235 0.708705,1.67727 0,0 1.086682,-1.299293 0.755952,-1.937128 0,0 3.945126,1.488281 -0.354353,5.220796 l -2.409598,0.354353 -0.614211,-0.850447 -0.614211,0.755952 -0.496094,-0.425223 -1.464658,1.252046 z"
           style="fill:none;stroke:#000000;stroke-width:0.9830144;stroke-linecap:butt;stroke-linejoin:miter;stroke-miterlimit:4;stroke-dasharray:none;stroke-opacity:1" />
      </g>
    </g>
  </g>
</svg>
