<?xml version="1.0" encoding="UTF-8" standalone="no"?>
<!-- Created with Inkscape (http://www.inkscape.org/) -->

<svg
   xmlns:dc="http://purl.org/dc/elements/1.1/"
   xmlns:cc="http://creativecommons.org/ns#"
   xmlns:rdf="http://www.w3.org/1999/02/22-rdf-syntax-ns#"
   xmlns:svg="http://www.w3.org/2000/svg"
   xmlns="http://www.w3.org/2000/svg"
   xmlns:sodipodi="http://sodipodi.sourceforge.net/DTD/sodipodi-0.dtd"
   xmlns:inkscape="http://www.inkscape.org/namespaces/inkscape"
   width="43.658756"
   height="101.52699"
   viewBox="0 0 11.551379 26.862351"
   version="1.1"
   id="svg8"
   inkscape:version="0.92.3 (2405546, 2018-03-11)"
   sodipodi:docname="torch.svg">
  <defs
     id="defs2" />
  <sodipodi:namedview
     id="base"
     pagecolor="#ffffff"
     bordercolor="#666666"
     borderopacity="1.0"
     inkscape:pageopacity="0.0"
     inkscape:pageshadow="2"
     inkscape:zoom="1.4"
     inkscape:cx="-216.63559"
     inkscape:cy="95.622679"
     inkscape:document-units="px"
     inkscape:current-layer="layer1"
     showgrid="false"
     units="px"
     inkscape:window-width="1600"
     inkscape:window-height="845"
     inkscape:window-x="1280"
     inkscape:window-y="24"
     inkscape:window-maximized="1" />
  <metadata
     id="metadata5">
    <rdf:RDF>
      <cc:Work
         rdf:about="">
        <dc:format>image/svg+xml</dc:format>
        <dc:type
           rdf:resource="http://purl.org/dc/dcmitype/StillImage" />
        <dc:title></dc:title>
      </cc:Work>
    </rdf:RDF>
  </metadata>
  <g
     inkscape:label="Layer 1"
     inkscape:groupmode="layer"
     id="layer1"
     transform="translate(98.645369,-30.238113)">
    <g
       transform="matrix(0.74912746,0,0,0.74912746,-123.93429,26.105543)"
       id="g1008">
      <ellipse
         ry="1.2041826"
         rx="2.7367787"
         cy="22.305796"
         cx="41.825977"
         id="ellipse990"
         style="opacity:1;fill:none;fill-opacity:1;stroke:#000000;stroke-width:0.44182953;stroke-miterlimit:4;stroke-dasharray:none;stroke-dashoffset:0;stroke-opacity:1" />
      <g
         id="g1002"
         transform="translate(120.96474,53.105655)">
        <ellipse
           ry="3.1183035"
           rx="7.0870538"
           cy="-32.548"
           cx="-79.138763"
           id="ellipse992"
           style="opacity:1;fill:none;fill-opacity:1;stroke:#000000;stroke-width:0.5291667;stroke-miterlimit:4;stroke-dasharray:none;stroke-dashoffset:0;stroke-opacity:1" />
        <rect
           ry="2.1350102"
           y="-31.697554"
           x="-81.997208"
           height="19.702009"
           width="5.7168899"
           id="rect994"
           style="opacity:1;fill:none;fill-opacity:1;stroke:#000000;stroke-width:0.5291667;stroke-miterlimit:4;stroke-dasharray:none;stroke-dashoffset:0;stroke-opacity:1" />
        <ellipse
           ry="1.6323559"
           rx="3.7098994"
           cy="-26.075157"
           cx="-79.138763"
           id="ellipse996"
           style="opacity:1;fill:none;fill-opacity:1;stroke:#000000;stroke-width:0.5291667;stroke-miterlimit:4;stroke-dasharray:none;stroke-dashoffset:0;stroke-opacity:1" />
        <ellipse
           style="opacity:1;fill:none;fill-opacity:1;stroke:#000000;stroke-width:0.5291667;stroke-miterlimit:4;stroke-dasharray:none;stroke-dashoffset:0;stroke-opacity:1"
           id="ellipse998"
           cx="-79.138763"
           cy="-22.815113"
           rx="3.7098994"
           ry="1.6323559" />
        <ellipse
           ry="0.59058779"
           rx="3.6143973"
           cy="-14.759496"
           cx="-79.067894"
           id="ellipse1000"
           style="opacity:1;fill:none;fill-opacity:1;stroke:#000000;stroke-width:0.5291667;stroke-miterlimit:4;stroke-dasharray:none;stroke-dashoffset:0;stroke-opacity:1" />
      </g>
      <path
         style="fill:none;stroke:#000000;stroke-width:0.5291667;stroke-linecap:butt;stroke-linejoin:miter;stroke-miterlimit:4;stroke-dasharray:none;stroke-opacity:1"
         d="m 35.530994,19.125409 c 0,0 1.243846,-1.770325 -1.194988,-3.708027 l 1.269528,-0.334089 -0.50113,-1.469982 1.336348,0.434313 0.133634,-0.668174 1.169304,-0.06682 0.133635,-0.935443 1.302939,0.968852 1.469983,-1.302939 0.467721,0.467722 0.634765,-0.7684 0.567948,0.835217 2.706104,-0.367495 0.634765,1.336347 1.837478,-0.367495 -0.03341,1.236121 0.734991,-0.300678 -0.367496,1.26953 0.801809,-0.50113 c 0,0 -1.702164,2.667659 -0.633086,4.004007 -0.680288,-0.146348 -7.055283,-3.298966 -12.470842,0.238563 z"
         id="path1004"
         inkscape:connector-curvature="0"
         sodipodi:nodetypes="cccccccccccccccccccccc" />
      <path
         style="fill:none;stroke:#000000;stroke-width:0.5291667;stroke-linecap:butt;stroke-linejoin:miter;stroke-miterlimit:4;stroke-dasharray:none;stroke-opacity:1"
         d="m 38.542307,12.691025 c 0,0 -1.677268,-1.866257 -0.803198,-2.645833 0,0 0.259857,0.685082 0.826821,0.566964 0,0 0.661458,-1.464658 -0.165365,-1.795387 0,0 0.726881,-0.911227 1.488282,1.157552 0,0 0.897693,-1.937128 0.188988,-2.740327 0,0 1.724516,-0.118118 1.984375,1.299293 0,0 -0.259859,-2.055246 0.755952,-2.574963 0,0 -0.09449,2.338728 0.4016,2.504092 0,0 0.87407,-0.755952 0.448847,-1.157552 0,0 1.015811,0.236235 0.708705,1.67727 0,0 1.086682,-1.299293 0.755952,-1.937128 0,0 3.945126,1.488281 -0.354353,5.220796 l -2.409598,0.354353 -0.614211,-0.850447 -0.614211,0.755952 -0.496094,-0.425223 -1.464658,1.252046 z"
         id="path1006"
         inkscape:connector-curvature="0"
         sodipodi:nodetypes="ccccccccccccc" />
    </g>
  </g>
</svg>
